<svg xmlns="http://www.w3.org/2000/svg" width="40.002" height="42.237" viewBox="381 7666 40.002 42.237"><g data-name="Group 306"><path d="M407.033 7679.432c-4.122-6.064-9.627-9.287-12.51-7.312a3.325 3.325 0 0 0-.815.82c0 .023-6.674 13.53-6.674 13.53l-3.726 2.524a5.263 5.263 0 0 0-1.398 7.313l.168.247a5.272 5.272 0 0 0 7.28 1.397l5.985 8.817c.88 1.085 2.57 2.165 4.657.894a3.153 3.153 0 0 0 1.398-2.143 3.335 3.335 0 0 0-.517-2.515l-5.273-7.778s12.464-.992 12.51-1.01c.39-.082.759-.24 1.086-.466 1.48-1.006 2.012-3.116 1.5-5.943-.462-2.604-1.77-5.552-3.67-8.375Zm-23.6 16.204-.167-.247a3.628 3.628 0 0 1 .969-5.044l3.218-2.189 4.248 6.255-3.219 2.19a3.633 3.633 0 0 1-5.049-.965Zm16.106 8.286a1.723 1.723 0 0 1-2.86 1.923l-5.966-8.788 2.399-1.63.633-.052 5.794 8.547Zm-6.297-10.144-4.63-6.819 4.416-9.003c.428 2.529 1.681 5.533 3.684 8.481 2.003 2.949 4.332 5.221 6.52 6.554l-9.99.787Zm13.74-1.086c-2.226-.144-5.85-2.654-8.92-7.177-3.069-4.522-4.065-8.803-3.38-10.931a1.984 1.984 0 0 1 1.862-1.397c2.208 0 5.967 2.524 9.125 7.177 1.779 2.617 3.074 5.356 3.428 7.75.694 4.578-2.115 4.578-2.115 4.578Z" fill="#fff" fill-rule="evenodd" data-name="Path 106"/><path d="M401.211 7679.605a4.373 4.373 0 0 0-3.316.684.818.818 0 1 0 .932 1.346 2.795 2.795 0 0 1 3.139 4.625.815.815 0 0 0 .466 1.486.796.796 0 0 0 .465-.14 4.42 4.42 0 0 0-1.653-8.001Zm6.828-5.84h.08a.815.815 0 0 0 .81-.732l.629-6.11a.815.815 0 1 0-1.621-.168l-.624 6.115a.815.815 0 0 0 .726.894Zm10.536-1.258a.82.82 0 0 0-1.132-.233l-5.678 3.726a.815.815 0 0 0 .466 1.495.829.829 0 0 0 .466-.13l5.677-3.727a.815.815 0 0 0 .2-1.131Zm1.737 9.948-6.605-1.188a.816.816 0 0 0-.288 1.607l6.6 1.188h.144a.815.815 0 0 0 .144-1.62Z" fill="#fff" fill-rule="evenodd" data-name="Path 107"/></g></svg>